<?xml version="1.0" encoding="utf-8"?>
<!-- Generator: Adobe Illustrator 16.0.0, SVG Export Plug-In . SVG Version: 6.00 Build 0)  -->
<!DOCTYPE svg PUBLIC "-//W3C//DTD SVG 1.1//EN" "http://www.w3.org/Graphics/SVG/1.1/DTD/svg11.dtd">
<svg version="1.1" id="Livello_1" xmlns="http://www.w3.org/2000/svg" xmlns:xlink="http://www.w3.org/1999/xlink" x="0px" y="0px"
	 width="21.738px" height="21.354px" viewBox="0 0 21.738 21.354" enable-background="new 0 0 21.738 21.354" xml:space="preserve">
<g id="Guides_For_Artboard">
</g>
<g id="_x30_">
</g>
<g id="_x31_">
</g>
<g id="_x32_">
</g>
<g id="_x33_">
</g>
<g id="_x34_">
</g>
<g id="_x35_">
</g>
<g id="_x36_">
</g>
<g id="_x37_">
</g>
<g id="_x38_">
</g>
<g id="_x39_">
</g>
<g id="_x31_0">
</g>
<g id="_x31_1">
</g>
<g id="_x31_2">
</g>
<g id="_x31_3">
</g>
<g id="_x31_4">
</g>
<g id="_x31_5">
	<g>
		<path fill="#F7C311" d="M5.313,4.977h0.311c0.475,0,0.856-0.383,0.856-0.854V1.76V0.877c0-0.475-0.383-0.855-0.856-0.855H5.313
			c-0.475,0-0.856,0.383-0.856,0.855V1.76v2.361C4.457,4.594,4.841,4.977,5.313,4.977z"/>
		<path fill="#F7C311" d="M16.289,4.956H16.6c0.473,0,0.854-0.385,0.854-0.856V1.535V0.855C17.455,0.383,17.073,0,16.6,0h-0.312
			c-0.473,0-0.854,0.383-0.854,0.854v0.681V4.1C15.434,4.573,15.817,4.956,16.289,4.956z"/>
		<path fill="#F7C311" d="M20.348,1.76h-2.197v2.564c0,0.854-0.695,1.326-1.551,1.326h-0.312c-0.854,0-1.551-0.694-1.551-1.552V1.76
			H7.177v2.361c0,0.854-0.695,1.552-1.553,1.552H5.313c-0.855,0-1.552-0.696-1.552-1.552V1.76h-2.37C0.624,1.76,0,2.384,0,3.151
			v16.812c0,0.767,0.624,1.391,1.393,1.391h18.957c0.768,0,1.391-0.624,1.391-1.391V3.151C21.739,2.384,21.115,1.76,20.348,1.76z
			 M20.348,19.963H1.392V7.267H20.35v12.696C20.35,19.963,20.35,19.963,20.348,19.963z"/>
		<path fill="#F7C311" d="M11.588,11.526h2.498c0.101,0,0.181-0.081,0.181-0.179V9.183c0-0.099-0.08-0.179-0.181-0.179h-2.498
			c-0.098,0-0.18,0.08-0.18,0.179v2.163C11.408,11.445,11.489,11.526,11.588,11.526z"/>
		<path fill="#F7C311" d="M15.664,11.526h2.498c0.101,0,0.182-0.081,0.182-0.179V9.183c0-0.099-0.081-0.179-0.182-0.179h-2.498
			c-0.098,0-0.18,0.08-0.18,0.179v2.163C15.487,11.445,15.567,11.526,15.664,11.526z"/>
		<path fill="#F7C311" d="M3.435,15.067h2.498c0.099,0,0.179-0.08,0.179-0.179v-2.163c0-0.099-0.08-0.179-0.179-0.179H3.435
			c-0.101,0-0.182,0.081-0.182,0.179v2.163C3.256,14.987,3.336,15.067,3.435,15.067z"/>
		<path fill="#F7C311" d="M7.511,15.067h2.497c0.1,0,0.181-0.08,0.181-0.179v-2.163c0-0.099-0.081-0.179-0.181-0.179H7.511
			c-0.101,0-0.181,0.081-0.181,0.179v2.163C7.332,14.987,7.413,15.067,7.511,15.067z"/>
		<path fill="#F7C311" d="M11.588,15.067h2.498c0.101,0,0.181-0.08,0.181-0.179v-2.163c0-0.099-0.08-0.179-0.181-0.179h-2.498
			c-0.098,0-0.18,0.081-0.18,0.179v2.163C11.408,14.987,11.489,15.067,11.588,15.067z"/>
		<path fill="#F7C311" d="M15.664,15.067h2.498c0.101,0,0.182-0.08,0.182-0.179v-2.163c0-0.099-0.081-0.179-0.182-0.179h-2.498
			c-0.098,0-0.178,0.081-0.178,0.179v2.163C15.487,14.987,15.567,15.067,15.664,15.067z"/>
		<path fill="#F7C311" d="M5.933,16.087H3.435c-0.101,0-0.182,0.08-0.182,0.179v2.163c0,0.099,0.081,0.179,0.182,0.179h2.498
			c0.099,0,0.179-0.08,0.179-0.179v-2.163C6.112,16.167,6.032,16.087,5.933,16.087z"/>
		<path fill="#F7C311" d="M10.01,16.087H7.511c-0.101,0-0.181,0.08-0.181,0.179v2.163c0,0.099,0.081,0.179,0.181,0.179h2.497
			c0.1,0,0.181-0.08,0.181-0.179v-2.163C10.189,16.167,10.109,16.087,10.01,16.087z"/>
		<path fill="#F7C311" d="M14.086,16.087h-2.498c-0.098,0-0.18,0.08-0.18,0.179v2.163c0,0.099,0.082,0.179,0.18,0.179h2.498
			c0.101,0,0.181-0.08,0.181-0.179v-2.163C14.266,16.167,14.186,16.087,14.086,16.087z"/>
		<path fill="#F7C311" d="M18.162,16.087h-2.498c-0.098,0-0.178,0.08-0.178,0.179v2.163c0,0.099,0.08,0.179,0.178,0.179h2.498
			c0.101,0,0.183-0.08,0.183-0.179v-2.163C18.342,16.167,18.262,16.087,18.162,16.087z"/>
	</g>
</g>
<g id="_x31_6">
</g>
<g id="_x31_7">
</g>
<g id="_x31_8">
</g>
<g id="_x31_9">
</g>
<g id="_x32_0">
</g>
<g id="_x32_1">
</g>
<g id="_x32_2">
</g>
<g id="_x32_3">
</g>
<g id="_x32_4">
</g>
<g id="_x32_5">
</g>
<g id="_x32_6">
</g>
<g id="_x32_7">
</g>
<g id="_x32_8">
</g>
<g id="_x32_9">
</g>
<g id="_x33_0">
</g>
<g id="_x33_1">
</g>
<g id="_x33_2">
</g>
<g id="_x33_3">
</g>
<g id="_x33_4">
</g>
<g id="_x33_5">
</g>
<g id="_x33_6">
</g>
<g id="_x33_7">
</g>
<g id="_x33_8">
</g>
<g id="_x33_9">
</g>
<g id="_x34_0">
</g>
<g id="_x34_1">
</g>
<g id="_x34_2">
</g>
<g id="_x34_3">
</g>
<g id="_x34_4">
</g>
<g id="_x34_5">
</g>
<g id="_x34_6">
</g>
<g id="_x34_7">
</g>
<g id="_x34_8">
</g>
<g id="_x34_9">
</g>
<g id="_x35_0">
</g>
<g id="_x35_1">
</g>
<g id="_x35_2">
</g>
<g id="_x35_3">
</g>
<g id="_x35_4">
</g>
<g id="_x35_5">
</g>
<g id="_x35_6">
</g>
<g id="_x35_7">
</g>
<g id="_x35_8">
</g>
<g id="_x35_9">
</g>
<g id="_x36_0">
</g>
<g id="_x36_1">
</g>
<g id="_x36_2">
</g>
<g id="_x36_3">
</g>
<g id="_x36_4">
</g>
<g id="_x36_5">
</g>
<g id="_x36_6">
</g>
<g id="_x36_7">
</g>
<g id="_x36_8">
</g>
<g id="_x36_9">
</g>
<g id="_x37_0">
</g>
</svg>
