<?xml version="1.0" encoding="utf-8"?>
<!-- Generator: Adobe Illustrator 16.0.4, SVG Export Plug-In . SVG Version: 6.00 Build 0)  -->
<!DOCTYPE svg PUBLIC "-//W3C//DTD SVG 1.1//EN" "http://www.w3.org/Graphics/SVG/1.1/DTD/svg11.dtd">
<svg version="1.1" id="Livello_1" xmlns="http://www.w3.org/2000/svg" xmlns:xlink="http://www.w3.org/1999/xlink" x="0px" y="0px"
	 width="24px" height="48px" viewBox="0 0 24 48" enable-background="new 0 0 24 48" xml:space="preserve">
<circle fill="#F7C311" cx="12" cy="36.167" r="7.833"/>
<g>
	<path fill="#F7C311" d="M12,25c6.065,0,11,4.935,11,11s-4.935,11-11,11S1,42.065,1,36S5.935,25,12,25 M12,24
		C5.373,24,0,29.373,0,36s5.373,12,12,12s12-5.373,12-12S18.627,24,12,24L12,24z"/>
</g>
<g>
	<path fill="#F7C311" d="M12,1c6.065,0,11,4.935,11,11s-4.935,11-11,11S1,18.065,1,12S5.935,1,12,1 M12,0C5.373,0,0,5.373,0,12
		s5.373,12,12,12s12-5.373,12-12S18.627,0,12,0L12,0z"/>
</g>
</svg>
