<?xml version="1.0" encoding="utf-8"?>
<!-- Generator: Adobe Illustrator 16.0.0, SVG Export Plug-In . SVG Version: 6.00 Build 0)  -->
<!DOCTYPE svg PUBLIC "-//W3C//DTD SVG 1.1//EN" "http://www.w3.org/Graphics/SVG/1.1/DTD/svg11.dtd">
<svg version="1.1" xmlns="http://www.w3.org/2000/svg" xmlns:xlink="http://www.w3.org/1999/xlink" x="0px" y="0px"
	 width="199.976px" height="225.927px" viewBox="0 0 199.976 225.927" enable-background="new 0 0 199.976 225.927"
	 xml:space="preserve">
<g id="Livello_1">
</g>
<g id="Layer_1">
	<circle fill="#FFFFFF" cx="99.988" cy="125.938" r="99.988"/>
	<g>
		<path fill-rule="evenodd" clip-rule="evenodd" fill="#F8C300" d="M181.987,125.859c0,0,0.869-5.093-2-18.198
			c-2.851-13.104-15.202-5.676-15.202-5.676l-42.727,18.322l7.108,14.157l35.603,15.271c0,0,12.366,7.427,15.234-5.677
			C182.874,130.939,181.987,125.859,181.987,125.859z"/>
		<path fill="#555657" d="M99.965,34.696c50.412,0,91.257,40.848,91.257,91.237c0,50.395-40.846,91.244-91.257,91.244
			c-50.389,0-91.22-40.849-91.22-91.244C8.745,75.544,49.576,34.696,99.965,34.696 M99.965,25.952C44.844,25.952,0,70.804,0,125.933
			c0,55.137,44.844,99.994,99.965,99.994c55.15,0,100.011-44.856,100.011-99.994C199.976,70.804,155.115,25.952,99.965,25.952
			L99.965,25.952z"/>
		<path fill="#555657" d="M91.384,8.604C91.384,3.855,95.235,0,99.989,0c4.75,0,8.603,3.855,8.603,8.604
			c0,4.753-3.852,8.604-8.603,8.604C95.235,17.208,91.384,13.357,91.384,8.604z"/>
		<path fill="#555657" d="M150.022,175.991l-33.367-66.444L49.937,75.873l33.48,66.312L150.022,175.991z M102.761,111.786
			l-16.91,16.926L68.604,94.537L102.761,111.786z"/>
		<path fill-rule="evenodd" clip-rule="evenodd" fill="#F8C300" d="M169.364,81.982c-7.235-11.3-11.461-14.264-11.461-14.264
			s-2.979-4.224-14.281-11.463c-11.281-7.235-14.765,6.738-14.765,6.738l-17.532,43.865l5.329,2.688l2.338,4.657l43.618-17.442
			C162.612,96.762,176.603,93.281,169.364,81.982z"/>
		<path fill-rule="evenodd" clip-rule="evenodd" fill="#F8C300" d="M91.559,96.881l13.594,6.859l18.545-43.26
			c0,0,7.417-12.348-5.672-15.199c-13.105-2.871-18.197-1.999-18.197-1.999s-5.097-0.888-18.2,1.983
			c-13.105,2.866-5.675,15.23-5.675,15.23L91.559,96.881z"/>
		<path fill-rule="evenodd" clip-rule="evenodd" fill="#F8C300" d="M49.937,75.873l32.398,16.352L70.651,62.993
			c0,0-3.483-13.973-14.767-6.738c-11.298,7.239-14.28,11.463-14.28,11.463s-4.224,2.964-11.46,14.264
			c-7.24,11.299,6.753,14.779,6.753,14.779l29.554,11.818L49.937,75.873z"/>
		<path fill-rule="evenodd" clip-rule="evenodd" fill="#F8C300" d="M71.488,118.555l-0.643-1.272l-35.673-15.297
			c0,0-12.346-7.428-15.202,5.676c-2.868,13.104-1.998,18.198-1.998,18.198s-0.885,5.08,1.983,18.198
			c2.871,13.104,15.234,5.677,15.234,5.677l42.776-18.349L71.488,118.555z"/>
		<path fill-rule="evenodd" clip-rule="evenodd" fill="#F8C300" d="M83.417,142.185l-2.386-4.73L36.897,155.1
			c0,0-13.994,3.484-6.753,14.777c7.236,11.307,11.46,14.272,11.46,14.272s2.982,4.22,14.28,11.461
			c11.284,7.234,14.767-6.739,14.767-6.739l17.666-44.2L83.417,142.185z"/>
		<path fill-rule="evenodd" clip-rule="evenodd" fill="#F8C300" d="M107.943,154.632l-13.331-6.766l-18.658,43.503
			c0,0-7.43,12.361,5.675,15.231c13.104,2.872,18.2,1.98,18.2,1.98s5.092,0.874,18.197-1.997
			c13.088-2.854,5.672-15.198,5.672-15.198L107.943,154.632z"/>
		<path fill-rule="evenodd" clip-rule="evenodd" fill="#F8C300" d="M162.612,155.1l-28.879-11.544l16.289,32.436l-33.008-16.754
			l11.844,29.634c0,0,3.483,13.974,14.765,6.739c11.302-7.241,14.281-11.461,14.281-11.461s4.226-2.966,11.461-14.272
			C176.603,158.583,162.612,155.1,162.612,155.1z"/>
	</g>
</g>
</svg>
